<svg width="120" height="26" viewBox="0 0 120 26" fill="none" xmlns="http://www.w3.org/2000/svg">
<g id="Group">
<g id="Group 3">
<mask id="mask0_2763_45514" style="mask-type:luminance" maskUnits="userSpaceOnUse" x="0" y="0" width="26" height="26">
<path id="Clip 2" fill-rule="evenodd" clip-rule="evenodd" d="M25.3284 0.511719H0L0 25.9995H25.3284V0.511719Z" fill="white"/>
</mask>
<g mask="url(#mask0_2763_45514)">
<path id="Fill 1" fill-rule="evenodd" clip-rule="evenodd" d="M12.6638 19.6651C10.4985 18.2847 6.69798 15.2324 6.69798 12.1952C6.69798 10.4406 8.07873 9.3919 9.41392 9.3919C11.3339 9.3919 12.3866 11.0567 12.6638 11.4869C12.9235 11.0464 13.8653 9.3919 15.9137 9.3919C17.2496 9.3919 18.6296 10.4406 18.6296 12.1952C18.6296 15.2324 14.8291 18.2847 12.6638 19.6651ZM17.4114 23.0183C17.3901 23.0293 16.077 22.1004 14.8367 21.2188C14.9362 21.1463 15.038 21.0714 15.1458 20.9926C17.5215 19.2624 21.0706 16.0361 21.0706 12.1952C21.0706 9.57311 19.1415 6.85966 15.9137 6.85966C14.5565 6.85966 13.5129 7.30087 12.6646 7.92802C11.8162 7.29929 10.7727 6.85966 9.41392 6.85966C6.18608 6.85966 4.25696 9.57311 4.25696 12.1952C4.25696 16.0361 7.80684 19.2624 10.1818 20.9926C10.3063 21.0785 10.421 21.1589 10.5334 21.2369C9.31291 22.1327 8.01949 23.075 7.99215 23.0592C4.60937 21.2518 2.4638 17.6418 2.4638 13.6488C2.4638 7.81535 7.03975 3.06839 12.663 3.06839C18.2886 3.06839 22.863 7.81535 22.863 13.6488C22.863 17.6 20.7463 21.1983 17.4114 23.0183ZM12.663 0.511719C5.68101 0.511719 0 6.40505 0 13.6488C0 18.9426 3.03494 23.6927 7.73392 25.7546L8.29443 25.9996L12.6813 22.7575L17.2018 25.9334L17.7524 25.6844C22.3534 23.5871 25.3284 18.8638 25.3284 13.6488C25.3284 6.40505 19.6466 0.511719 12.663 0.511719Z" fill="#009EB9"/>
</g>
</g>
<path id="Fill 4" fill-rule="evenodd" clip-rule="evenodd" d="M30.3799 20.9628H31.0634C32.3249 20.9628 32.773 20.4168 32.773 19.324V3.9375H36.0343V19.7069C36.0343 22.2163 35.0614 23.9079 31.4584 23.9079H30.3799V20.9628Z" fill="#EF5E39"/>
<path id="Fill 6" fill-rule="evenodd" clip-rule="evenodd" d="M38.7334 6.30078H41.5792V19.2819C41.5792 20.5433 42.0615 21.1633 43.0952 21.1633C44.1288 21.1633 44.6104 20.5433 44.6104 19.2819V6.30078H47.4577V19.1621C47.4577 22.1151 45.8043 23.7358 43.0952 23.7358C40.3868 23.7358 38.7334 22.1151 38.7334 19.1621V6.30078Z" fill="#EF5E39"/>
<path id="Fill 8" fill-rule="evenodd" clip-rule="evenodd" d="M55.292 10.7799C55.1766 9.30339 54.4193 8.87478 53.776 8.87478C52.8578 8.87478 52.3528 9.49327 52.3528 10.5656C52.3528 13.4941 58.1378 14.9005 58.1378 19.5671C58.1378 22.4034 56.3014 23.9745 53.6386 23.9745C50.9986 23.9745 49.4826 21.7826 49.3672 19.211L52.0771 18.8068C52.1917 20.5441 52.8578 21.4021 53.776 21.4021C54.7626 21.4021 55.4302 20.8553 55.4302 19.8302C55.4302 16.4242 49.6436 15.5198 49.6436 10.5892C49.6436 7.84975 51.25 6.30078 54.0517 6.30078C56.3705 6.30078 57.7474 8.04042 58.0011 10.4702L55.292 10.7799Z" fill="#EF5E39"/>
<path id="Fill 10" fill-rule="evenodd" clip-rule="evenodd" d="M61.2344 8.87242H58.4805V6.30078H66.8372V8.87242H64.0825V23.497H61.2344V8.87242Z" fill="#EF5E39"/>
<path id="Fill 12" fill-rule="evenodd" clip-rule="evenodd" d="M75.1398 9.06659C75.0084 7.37423 74.1411 6.88417 73.4044 6.88417C72.3532 6.88417 71.7722 7.59326 71.7722 8.82156C71.7722 12.1771 78.4018 13.786 78.4018 19.1333C78.4018 22.3802 76.2973 24.1797 73.2456 24.1797C70.2221 24.1797 68.4866 21.6703 68.3545 18.7236L71.4578 18.2611C71.5899 20.2521 72.3532 21.2354 73.4044 21.2354C74.5345 21.2354 75.2985 20.6051 75.2985 19.4327C75.2985 15.5319 68.6704 14.4959 68.6704 8.84835C68.6704 5.7118 70.5107 3.9375 73.7196 3.9375C76.3755 3.9375 77.9537 5.92926 78.2431 8.71205L75.1398 9.06659Z" fill="#EF5E39"/>
<path id="Fill 14" fill-rule="evenodd" clip-rule="evenodd" d="M80.5059 23.497V6.30078H88.1289V8.87242H83.3532V13.3019H87.0269V15.8751H83.3532V20.9246H88.4502V23.497H80.5059Z" fill="#EF5E39"/>
<path id="Fill 16" fill-rule="evenodd" clip-rule="evenodd" d="M93.2272 14.0181H94.2389C95.7768 14.0181 96.351 13.4216 96.351 11.3747C96.351 9.32624 95.7768 8.7306 94.2389 8.7306H93.2272V14.0181ZM93.2272 23.497H90.3799V6.30078H94.3763C97.567 6.30078 99.1968 7.70636 99.1968 11.3747C99.1968 14.1362 98.1639 15.2566 97.2001 15.7096L99.6108 23.497H96.7171L94.6961 16.3762C94.3292 16.4242 93.7323 16.4463 93.2272 16.4463V23.497Z" fill="#EF5E39"/>
<path id="Fill 18" fill-rule="evenodd" clip-rule="evenodd" d="M107.233 6.30078H110.034L106.566 23.497H103.72L100.253 6.30078H103.053L105.121 18.234H105.166L107.233 6.30078Z" fill="#EF5E39"/>
<path id="Fill 20" fill-rule="evenodd" clip-rule="evenodd" d="M111.646 23.497V6.30078H119.269V8.87242H114.492V13.3019H118.165V15.8751H114.492V20.9246H119.59V23.497H111.646Z" fill="#EF5E39"/>
</g>
</svg>
