<svg width="72" height="18" viewBox="0 0 72 18" fill="none" xmlns="http://www.w3.org/2000/svg">
<g id="PrestigeLogo-Color">
<path id="Vector" d="M69.6732 9.84103C69.6732 9.84103 69.8502 9.65205 69.814 9.36253C69.7778 9.07301 69.5064 6.94386 69.5064 6.94386C69.5064 6.94386 71.4968 5.10221 71.4968 3.90795C71.4968 2.71369 69.2892 0.839874 61.239 0.256819C56.8219 -0.0628557 52.4168 0.0959765 52.4168 0.0959765C52.2801 0.0557658 51.7091 0.341262 51.9645 0.341262C52.6943 0.341262 53.3336 0.395546 54.3811 0.540304C62.1418 1.73255 66.4121 5.02581 69.6732 9.84305V9.84103Z" fill="#00ADEF"/>
<path id="Vector_2" d="M44.7619 2.90076L44.3739 4.9314H42.2186L42.6066 2.90076H44.7619ZM41.1691 6.383L40.8494 7.97132H41.6375L40.389 14.5317H42.5443L44.0944 6.38903H44.0904L44.0944 6.38099H41.1691V6.383ZM16.3973 6.32872H16.1017C15.4041 6.32872 14.5195 6.37496 13.1241 7.13494L13.2629 6.39104H11.3549L9.80475 14.5337H11.96L13.0759 8.65692C13.866 8.16031 15.014 8.13016 15.8042 8.13016H16.0535L16.3953 6.33073L16.3973 6.32872ZM54.0023 6.26639H49.5208C47.7677 6.26639 45.9702 7.13494 45.6284 8.98061C45.5822 9.22791 45.5661 9.44504 45.5661 9.64811C45.5661 10.8283 46.2638 11.2606 46.4508 11.3551C46.0627 11.6647 45.1178 12.1914 44.9308 13.2007C44.8986 13.3415 44.8986 13.4641 44.8986 13.5727C44.9047 15.7481 49.9028 14.1236 49.8767 15.4646C49.8787 16.49 48.1858 16.4095 47.3957 16.4095H44.7639L44.1567 17.9456H47.456C49.6897 17.9456 51.451 17.5254 51.837 15.541C51.8671 15.3701 51.8832 15.2153 51.8832 15.0765C51.8832 13.5727 50.4939 13.1866 49.0363 13.1866H48.4311C47.6088 13.1866 46.9896 13.1565 46.9896 12.7845V12.7222C47.066 12.3342 47.4862 12.0085 47.7335 11.8697C47.8099 11.8858 47.9345 11.9461 48.401 11.9461C51.1614 11.9461 52.1848 10.3337 52.3859 9.2641C52.4321 9.03087 52.4482 8.82982 52.4482 8.64284C52.4482 8.11809 52.2873 7.81651 52.1587 7.64361H53.7349L53.9983 6.27041L54.0023 6.26639ZM50.3572 9.10526C50.1401 10.207 49.6294 10.5327 48.7749 10.5327C48.0934 10.5327 47.7053 10.3156 47.7053 9.63202C47.7053 9.47721 47.7214 9.29224 47.7677 9.08918C47.9687 7.98741 48.4814 7.6617 49.3178 7.6617C50.0154 7.6617 50.4195 7.87884 50.4195 8.57649C50.4195 8.7313 50.4035 8.9022 50.3572 9.10325V9.10526ZM9.71227 7.18118C9.77459 6.88765 9.80475 6.57601 9.80475 6.28247C9.80475 5.64715 9.63386 5.02589 9.1835 4.57754C8.65674 4.0347 7.74194 3.67682 6.20589 3.67682H1.28411L0.942317 5.42599H2.22906L0.5 14.5337H2.70355L3.41728 10.78H5.0619C7.85252 10.78 9.35841 9.04294 9.71428 7.18118H9.71227ZM7.44841 7.21134C7.16894 8.68506 6.39489 9.13542 5.10814 9.13542H3.72691L4.44668 5.42599H5.81183C7.10661 5.42599 7.7339 5.74566 7.44841 7.21134ZM23.0743 11.0736C23.3598 11.0736 23.7719 11.0877 23.9629 10.4805C24.1519 9.88133 24.1519 9.60187 24.1841 9.08717C24.3067 7.16309 23.4221 6.21814 21.1281 6.21814C18.3978 6.21814 16.6305 7.89291 15.9489 10.5448C15.6775 11.5199 15.5066 14.6704 19.4352 14.6704H22.2982L22.6923 13.1304H20.3661C19.0371 13.1304 17.9514 12.9474 18.0479 11.4596C18.056 11.3349 18.0801 11.2123 18.1042 11.0716H23.0763L23.0743 11.0736ZM21.8177 9.70842H18.4521C18.7255 8.60665 19.4231 7.62953 20.6636 7.62953C21.7332 7.62953 21.9906 8.21862 21.9444 8.94844C21.9283 9.19574 21.882 9.44504 21.8177 9.70842ZM32.4333 6.383H29.695C28.2373 6.383 26.1202 6.48956 25.6478 8.70115C25.6116 8.87003 25.6015 9.02685 25.6015 9.18166C25.6015 9.66218 25.7724 10.0341 26.0358 10.3136C26.4379 10.7318 26.9043 10.9188 27.602 11.1037C28.7963 11.4134 29.5261 11.4757 29.5261 12.0809C29.5261 12.9273 28.2715 13.1082 27.419 13.1082H24.8074L24.4153 14.6765L27.5276 14.6704C29.4899 14.6704 31.3738 14.1215 31.8704 11.9884C31.9086 11.8195 31.9166 11.6466 31.9166 11.5079C31.9166 11.0273 31.7457 10.6855 31.4823 10.4061C30.9857 9.90948 30.266 9.7808 29.695 9.64409C28.7098 9.40483 27.793 9.30632 27.8975 8.58655C27.9981 7.90699 29.2165 7.97333 29.7734 7.97333H32.1217L32.4353 6.38501L32.4333 6.383ZM39.816 6.39104H37.528L38.0708 3.5381L35.8532 4.25184L35.435 6.39305H33.8226L33.5291 7.97534H35.1415L34.3051 12.3322C34.2428 12.6277 34.2287 12.8911 34.2287 13.1082C34.2287 14.5357 35.3144 14.5357 36.5087 14.5357H38.1593L38.4529 12.9695H37.0817C36.7097 12.9695 36.4001 12.8609 36.4001 12.4106C36.4001 12.3483 36.4001 12.2719 36.4162 12.1934L37.2224 7.97534H39.5265L39.82 6.39305L39.816 6.39104ZM59.851 9.71245H56.4853C56.7567 8.61268 57.4564 7.63556 58.6969 7.63556C59.7665 7.63556 60.0239 8.22465 59.9776 8.95246C59.9615 9.20177 59.9153 9.44907 59.851 9.71245ZM53.8033 11.6506C53.6666 13.9366 55.2931 14.7287 57.4846 14.7287C58.3089 14.7287 59.6378 14.6041 60.3958 14.403L60.7436 13.0037C60.0359 13.1444 59.3121 13.2832 58.3793 13.2832C57.1508 13.2832 55.9887 12.9574 56.0772 11.4636C56.0852 11.339 56.1094 11.2163 56.1335 11.0756H60.9648C61.6765 11.0756 61.8374 10.9831 62.0465 10.3257C62.157 9.97583 62.1872 9.54557 62.2174 9.09119C62.342 7.16711 61.4554 6.22216 59.1593 6.22216C56.431 6.22216 54.6638 7.89693 53.9802 10.5488C53.8777 10.9509 53.8214 11.3249 53.8013 11.6506H53.8033Z" fill="white"/>
</g>
</svg>
