<svg width="120" height="40" viewBox="0 0 120 40" fill="white" xmlns="http://www.w3.org/2000/svg">
<path fill-rule="evenodd" clip-rule="evenodd" d="M13.947 26.0575L1 18.5833V11.4627L13.9262 4L26.8524 11.4627V19.235L13.947 26.0575ZM13.9263 36L1.98694 29.1082L6.7733 26.3418L13.9055 30.4602L26.8525 23.6146V28.5374L13.9263 36Z" fill="white"/>
<path fill-rule="evenodd" clip-rule="evenodd" d="M110.201 32.1219H107.053L113.08 22.3782C112.824 22.4845 112.558 22.5723 112.288 22.637C111.661 22.7988 111.016 22.8843 110.369 22.8912C109.355 22.9005 108.349 22.704 107.413 22.3134C105.643 21.5808 104.242 20.1641 103.531 18.3845C103.163 17.4601 102.976 16.4732 102.985 15.4794C102.976 14.4486 103.179 13.4248 103.581 12.4749C103.963 11.5805 104.524 10.7739 105.234 10.106C105.96 9.43579 106.805 8.91117 107.73 8.55987C109.75 7.81338 111.969 7.81338 113.989 8.55987C114.911 8.91117 115.759 9.43579 116.485 10.106C117.194 10.7739 117.756 11.5805 118.139 12.4749C118.541 13.4248 118.743 14.4486 118.733 15.4794C118.738 16.0826 118.671 16.6835 118.537 17.2705C118.405 17.8206 118.223 18.3568 117.996 18.8745C117.781 19.3598 117.543 19.8313 117.28 20.2912C117.028 20.728 116.797 21.1417 116.586 21.5323L110.201 32.1219ZM110.864 10.314C110.145 10.3048 109.429 10.4319 108.756 10.6861C107.522 11.1553 106.549 12.1306 106.08 13.3647C105.826 14.0373 105.698 14.7537 105.708 15.4725C105.703 16.1612 105.839 16.8453 106.11 17.4785C107.221 20.0994 110.244 21.322 112.865 20.2126C113.48 19.9538 114.039 19.5817 114.513 19.1102C114.98 18.6411 115.352 18.0864 115.613 17.4785C115.884 16.8407 116.022 16.1543 116.015 15.4609C116.025 14.7422 115.898 14.0257 115.643 13.3532C115.174 12.1213 114.199 11.1483 112.967 10.6792C112.294 10.4273 111.583 10.3025 110.864 10.314ZM99.7196 32.1221H97.1981V22.9353C97.1981 22.3529 97.145 21.7728 97.0387 21.202C96.9462 20.6866 96.7636 20.192 96.5002 19.739C96.2482 19.3184 95.8877 18.9763 95.4578 18.7429C94.9055 18.4702 94.293 18.3408 93.6783 18.3685C93.0127 18.3662 92.354 18.4864 91.7323 18.7267C91.136 18.9602 90.5998 19.3276 90.1676 19.8014C89.6962 20.3376 89.3379 20.9593 89.1115 21.6364C88.8364 22.4893 88.7047 23.3814 88.7232 24.2781V32.1198H86.1971L86.1532 8.38208H88.677L88.7232 18.4725C89.1623 17.8855 89.7054 17.384 90.3225 16.9911C91.3255 16.3509 92.495 16.0204 93.6852 16.0435C94.9008 16.0435 95.9108 16.2399 96.6897 16.6305C97.4246 16.9864 98.0579 17.518 98.5386 18.1767C98.9939 18.833 99.3082 19.5772 99.463 20.3607C99.6317 21.1765 99.715 22.0085 99.7126 22.8405L99.7196 32.1221ZM73.1507 31.9047C74.2046 32.3184 75.3301 32.5241 76.4626 32.5149C77.5535 32.5218 78.6304 32.2907 79.6242 31.8423C80.6434 31.3662 81.5402 30.6613 82.2451 29.7854L82.423 29.5705L80.4817 27.9666L80.3037 28.1977C79.8369 28.7893 79.2591 29.2816 78.6027 29.6491C77.9464 30.0096 77.2091 30.1945 76.4626 30.1852C75.6468 30.1991 74.8379 30.042 74.0868 29.723C73.405 29.4295 72.7902 28.9996 72.2794 28.4611C71.7756 27.9226 71.3897 27.2871 71.1424 26.5914C70.6177 25.0961 70.6177 23.4645 71.1424 21.9692C71.3897 21.2758 71.7756 20.6402 72.2771 20.1018C72.7879 19.5633 73.4027 19.1334 74.0844 18.8399C74.8356 18.5209 75.6445 18.3638 76.4603 18.3776C77.1791 18.373 77.8886 18.5487 78.5241 18.8861C79.199 19.2536 79.8045 19.7366 80.313 20.3144L80.484 20.5039L82.5039 18.9901L82.3005 18.759C81.5656 17.927 80.6735 17.2498 79.6774 16.7622C78.6744 16.2838 77.5743 16.0388 76.4626 16.0457C75.3301 16.0365 74.2046 16.2422 73.1507 16.6558C72.1685 17.0395 71.2787 17.6242 70.5345 18.373C69.8019 19.1218 69.2264 20.0116 68.8382 20.9846C68.0246 23.1062 68.0246 25.4567 68.8382 27.5783C69.2241 28.5536 69.8019 29.4411 70.5345 30.1899C71.2787 30.9364 72.1685 31.5211 73.1507 31.9047ZM57.6776 32.5148C56.5636 32.5287 55.4589 32.3207 54.4258 31.9047C53.4783 31.5141 52.6208 30.9294 51.9113 30.1898C51.1972 29.4364 50.6471 28.5466 50.2935 27.5713C49.9122 26.5058 49.7227 25.3826 49.7365 24.2502C49.7273 23.1455 49.9238 22.0477 50.312 21.0146C50.6772 20.0439 51.2319 19.1564 51.9437 18.403C52.6463 17.6657 53.4898 17.0764 54.4235 16.6696C55.4219 16.2421 56.4966 16.0271 57.5829 16.041C58.6737 16.0225 59.7576 16.2375 60.7584 16.6743C61.6343 17.0672 62.4224 17.6357 63.0695 18.3452C63.6935 19.0339 64.1742 19.8405 64.4885 20.7141C64.8005 21.5739 64.96 22.4798 64.9623 23.3951V25.0498H52.2719C52.3158 25.4681 52.392 25.8818 52.503 26.2886C52.674 26.9334 52.9652 27.5389 53.3581 28.0774C53.8065 28.6852 54.3727 29.1937 55.0267 29.5704C55.7201 29.9795 56.6145 30.1852 57.7146 30.1852C58.6853 30.1805 59.6421 29.9425 60.5018 29.4918C61.3477 29.0758 62.0572 28.431 62.5518 27.6314L62.7205 27.3517L64.6018 28.9325L64.4631 29.1405C63.749 30.2707 62.7251 31.1674 61.5118 31.729C60.3031 32.2583 58.9973 32.5264 57.6776 32.5148ZM52.2996 22.7225H62.4316C62.4016 22.2025 62.2745 21.6917 62.0549 21.2203C61.8007 20.6679 61.4448 20.1687 61.0033 19.7504C60.5434 19.3182 60.0072 18.9762 59.4202 18.7427C58.8031 18.4931 58.1445 18.3683 57.4789 18.3706C56.5983 18.3383 55.7247 18.5486 54.9574 18.9831C54.3311 19.3506 53.781 19.8382 53.3396 20.416C52.9791 20.8944 52.6925 21.4237 52.496 21.9899C52.3967 22.3319 52.3343 22.563 52.2996 22.7225ZM41.9226 32.1221H44.6428V10.9058H52.5654V8.38208H34V10.9058H41.9226V32.1221Z" fill="white"/>
</svg>
